<?xml version="1.0" standalone="no"?>
<!DOCTYPE svg PUBLIC "-//W3C//DTD SVG 20010904//EN"
 "http://www.w3.org/TR/2001/REC-SVG-20010904/DTD/svg10.dtd">
<svg version="1.0" xmlns="http://www.w3.org/2000/svg"
 width="1600.000000pt" height="1600.000000pt" viewBox="0 0 1600.000000 1600.000000"
 preserveAspectRatio="xMidYMid meet">
<metadata>
Created by potrace 1.11, written by Peter Selinger 2001-2013
</metadata>
<g transform="translate(0.000000,1600.000000) scale(0.100000,-0.100000)"
fill="#000000" stroke="none">
<path d="M7568 14157 c-26 -18 -122 -77 -213 -132 -91 -55 -192 -116 -223
-136 -31 -20 -178 -109 -327 -199 -148 -89 -292 -177 -320 -195 -27 -17 -90
-56 -140 -85 -49 -29 -112 -68 -140 -85 -46 -29 -695 -424 -1125 -685 -96 -58
-186 -113 -200 -122 -42 -27 -393 -240 -425 -258 -16 -10 -102 -62 -190 -115
-88 -54 -495 -303 -905 -553 -990 -604 -1045 -638 -1118 -684 -34 -21 -77 -47
-95 -57 -127 -73 -2106 -1287 -2121 -1302 -19 -17 -19 -18 8 -25 26 -6 212 2
238 11 12 4 41 8 128 21 19 2 56 9 82 15 25 6 57 12 70 13 12 2 32 6 43 9 11
3 31 8 45 11 14 2 64 13 112 25 48 11 98 22 111 25 13 2 56 14 96 26 41 12 81
23 90 25 206 47 872 266 1371 450 85 31 169 63 185 70 17 7 109 43 205 80 96
37 189 73 205 81 17 7 80 33 140 57 139 57 348 143 400 167 23 10 88 39 145
63 58 25 134 58 170 75 36 16 99 44 140 62 41 18 135 61 209 96 73 35 135 64
137 64 2 0 90 42 196 94 106 51 200 96 208 99 27 11 692 351 785 402 102 55
362 201 385 215 8 5 32 19 54 31 87 47 455 274 598 370 138 92 425 295 438
309 3 3 59 49 125 102 269 217 460 430 555 621 l13 27 41 -62 c64 -96 68 -101
121 -158 217 -233 407 -389 744 -613 133 -88 369 -237 376 -237 2 0 59 -33
127 -74 134 -80 239 -139 363 -206 44 -23 128 -69 186 -101 175 -96 986 -499
1005 -499 1 0 54 -24 116 -54 62 -29 169 -78 238 -109 69 -30 186 -82 260
-115 150 -66 578 -247 738 -311 56 -22 146 -59 200 -80 884 -356 1916 -705
2617 -886 158 -40 478 -113 533 -120 20 -3 57 -10 82 -15 92 -19 310 -46 395
-49 92 -4 99 -4 113 -2 25 2 10 27 -36 55 -46 28 -526 299 -647 366 -33 18
-64 36 -70 40 -5 4 -55 31 -110 60 -55 29 -104 56 -110 60 -5 4 -35 21 -65 37
-48 27 -179 98 -335 183 -27 15 -148 82 -268 149 -121 66 -221 121 -223 121
-2 0 -38 20 -80 45 -41 25 -78 45 -80 45 -2 0 -59 31 -127 68 -67 38 -147 82
-177 99 -30 16 -158 87 -285 158 -126 70 -261 144 -300 165 -38 20 -88 47
-110 60 -22 12 -62 35 -90 50 -27 15 -131 72 -230 127 -99 55 -211 117 -250
137 -38 21 -83 46 -100 56 -16 9 -57 32 -90 50 -82 45 -231 127 -345 190 -154
85 -191 106 -265 145 -38 21 -86 47 -105 58 -19 11 -80 44 -135 75 -55 30
-119 65 -143 78 -23 13 -61 35 -85 48 -107 59 -258 142 -317 174 -36 19 -119
65 -185 102 -66 37 -149 83 -185 102 -36 20 -85 47 -110 60 -25 14 -70 39
-100 55 -30 17 -98 54 -150 83 -146 81 -579 320 -630 347 -25 13 -63 34 -85
47 -22 12 -76 41 -120 65 -44 24 -84 47 -90 51 -5 4 -44 25 -85 47 -41 22 -95
52 -120 65 -86 48 -335 185 -405 223 -38 22 -257 141 -485 267 -228 125 -417
228 -420 227 -3 -1 -26 -15 -52 -32z"/>
<path d="M15665 9084 c-128 -17 -319 -57 -425 -89 -492 -149 -858 -294 -1550
-613 -87 -39 -732 -362 -745 -371 -5 -5 -82 -45 -170 -91 -88 -46 -194 -102
-235 -125 -108 -60 -132 -74 -400 -223 -74 -41 -147 -83 -162 -93 -14 -11 -28
-19 -30 -19 -3 0 -70 -37 -149 -83 -128 -74 -173 -100 -244 -144 -11 -6 -63
-37 -115 -69 -52 -31 -178 -108 -280 -171 -102 -63 -194 -120 -205 -126 -11
-7 -22 -14 -25 -17 -3 -3 -86 -57 -185 -120 -99 -63 -181 -118 -183 -122 -2
-4 -8 -8 -13 -8 -11 0 -476 -313 -639 -431 -30 -22 -66 -47 -80 -57 -53 -36
-438 -321 -505 -374 -5 -4 -41 -33 -80 -63 -38 -30 -83 -66 -100 -80 -16 -14
-46 -37 -64 -52 -72 -58 -218 -179 -255 -213 -22 -19 -49 -44 -62 -55 -320
-285 -529 -511 -660 -714 -32 -50 -60 -91 -63 -91 -4 0 -23 32 -45 71 -104
193 -358 464 -686 735 -519 429 -1385 996 -2295 1501 -200 111 -255 141 -530
288 -448 239 -1198 607 -1660 815 -27 12 -72 32 -100 45 -27 12 -95 42 -150
65 -55 23 -128 55 -163 71 -34 16 -65 29 -67 29 -2 0 -28 11 -57 24 -29 13
-161 67 -293 119 -446 178 -893 333 -1158 401 -53 14 -101 27 -105 30 -4 2
-23 7 -42 10 -19 3 -44 8 -55 10 -110 26 -205 44 -270 52 -27 4 -88 12 -135
19 -48 7 -89 9 -94 4 -14 -12 22 -47 107 -105 39 -27 74 -51 77 -54 13 -14
871 -589 1875 -1257 440 -292 805 -536 810 -540 6 -4 122 -82 258 -172 136
-90 252 -170 258 -178 11 -12 14 -227 5 -343 -2 -25 -7 -81 -10 -125 -3 -44
-9 -102 -12 -130 -3 -27 -7 -66 -8 -85 -2 -19 -8 -60 -14 -90 -6 -30 -14 -73
-17 -95 -14 -85 -17 -101 -25 -135 -5 -19 -12 -48 -14 -65 -8 -43 -11 -56 -46
-190 -81 -310 -134 -442 -260 -645 -87 -139 -120 -204 -110 -219 5 -10 33 -13
101 -11 250 8 398 3 504 -15 150 -26 387 -96 570 -167 147 -57 447 -200 587
-278 51 -29 107 -61 124 -70 38 -22 176 -107 264 -164 165 -107 503 -323 533
-341 119 -72 641 -417 852 -564 700 -484 755 -511 1630 -802 295 -98 329 -107
351 -88 20 17 1 45 -98 141 -116 112 -111 107 -493 399 -160 121 -299 228
-310 237 -11 9 -77 60 -145 112 -69 52 -129 98 -135 103 -14 11 -504 386 -546
417 -99 74 -419 335 -594 485 -423 362 -557 463 -805 607 -266 154 -592 278
-825 313 -22 4 -83 13 -135 21 -134 21 -137 22 -215 29 -38 4 -77 8 -85 10 -8
1 -44 6 -80 10 -105 11 -121 13 -127 18 -2 3 20 58 51 122 31 65 56 119 56
121 0 2 9 23 19 47 25 55 99 256 121 332 58 194 73 248 90 320 11 44 21 91 24
105 15 84 28 118 45 113 47 -18 419 -262 1876 -1232 880 -585 1632 -1086 1671
-1112 l71 -47 184 129 c271 191 445 313 582 410 67 48 248 175 402 282 154
108 285 200 290 204 6 5 21 16 35 25 19 12 304 212 510 358 85 60 310 217 455
318 99 69 196 137 217 151 20 14 177 125 350 245 392 275 383 269 560 393 80
57 149 103 153 103 7 0 -2 -280 -10 -330 -2 -14 -7 -63 -10 -110 -10 -162 -15
-225 -20 -265 -2 -22 -7 -79 -10 -126 -4 -47 -8 -94 -10 -105 -2 -10 -4 -56
-4 -100 l-1 -82 -42 -6 c-24 -3 -65 -8 -93 -12 -27 -3 -59 -8 -70 -10 -10 -2
-35 -6 -55 -9 -127 -19 -287 -65 -396 -115 -72 -33 -186 -104 -259 -163 -106
-86 -300 -292 -407 -432 -400 -527 -1152 -1933 -1194 -2236 -7 -49 2 -89 20
-89 8 0 44 37 81 83 115 140 210 241 520 552 308 309 484 477 679 650 38 33
78 69 91 80 12 11 55 49 95 85 41 36 92 81 114 101 23 20 88 78 146 129 169
150 252 224 277 247 33 30 158 142 181 162 16 14 113 100 196 175 12 12 43 39
67 60 105 94 141 126 244 221 135 124 277 259 412 392 74 73 103 108 100 120
-16 56 -74 364 -82 433 -3 25 -7 56 -10 70 -2 14 -7 45 -10 70 -3 25 -8 56
-10 70 -4 24 -10 85 -20 198 -3 28 -7 73 -9 100 -5 49 -15 261 -21 438 -3 85
-1 103 13 113 10 6 60 41 112 78 52 37 97 70 98 75 2 4 8 8 12 8 7 0 98 61
215 146 11 8 130 91 265 186 344 242 541 380 645 453 28 20 79 56 115 81 36
25 101 70 145 101 44 31 222 156 395 278 173 121 338 237 365 256 28 20 118
83 200 140 83 58 258 181 390 274 132 93 282 199 334 235 397 275 425 296 414
303 -14 8 -135 4 -228 -9z"/>
</g>
</svg>
